<?xml version="1.0" standalone="no"?>
<!DOCTYPE svg PUBLIC "-//W3C//DTD SVG 20010904//EN"
 "http://www.w3.org/TR/2001/REC-SVG-20010904/DTD/svg10.dtd">
<svg version="1.0" xmlns="http://www.w3.org/2000/svg"
 width="150.000000pt" height="150.000000pt" viewBox="0 0 150.000000 150.000000"
 preserveAspectRatio="xMidYMid meet">

<g transform="translate(0.000000,150.000000) scale(0.100000,-0.100000)"
fill="#000000" stroke="none">
<path d="M938 949 c-24 -13 -23 -61 0 -82 24 -22 55 -21 75 1 47 52 -14 117
-75 81z"/>
<path d="M37 824 c-4 -4 -7 -48 -7 -98 0 -101 19 -150 62 -161 13 -3 97 -4
188 -3 139 3 165 5 165 18 0 13 -27 16 -167 20 -118 4 -171 9 -180 18 -8 8
-15 50 -18 110 -4 77 -8 97 -20 100 -9 1 -19 0 -23 -4z"/>
<path d="M490 803 c-15 -19 -19 -35 -15 -53 13 -51 24 -55 188 -58 153 -4 177
-9 177 -42 0 -38 -27 -45 -199 -50 -139 -4 -166 -7 -166 -20 0 -13 27 -15 170
-18 94 -1 180 0 192 3 26 6 53 52 53 90 0 16 -12 38 -29 56 l-29 29 -150 0
c-119 0 -151 3 -155 14 -3 8 -3 17 0 20 4 3 81 6 172 6 91 0 172 4 180 9 8 5
11 16 8 25 -6 14 -31 16 -191 16 l-185 0 -21 -27z"/>
<path d="M920 695 c0 -128 1 -135 20 -135 19 0 20 7 20 135 0 128 -1 135 -20
135 -19 0 -20 -7 -20 -135z"/>
<path d="M997 824 c-4 -4 -7 -65 -7 -136 0 -128 0 -129 23 -126 22 3 22 6 22
133 0 109 -2 130 -15 133 -9 1 -19 0 -23 -4z"/>
<path d="M1064 817 c-2 -7 -3 -67 -2 -133 3 -115 4 -119 26 -122 21 -3 22 -1
22 92 0 53 3 96 7 96 3 0 21 -11 40 -26 83 -63 143 -65 215 -8 24 19 46 34 50
34 4 0 9 -42 10 -92 3 -88 4 -93 26 -96 l23 -3 -3 133 c-4 159 -6 162 -101 89
-101 -76 -109 -76 -213 3 -63 47 -91 56 -100 33z"/>
</g>
</svg>
